<?xml version="1.0" encoding="UTF-8"?>
<!DOCTYPE svg PUBLIC "-//W3C//DTD SVG 1.1//EN" "http://www.w3.org/Graphics/SVG/1.1/DTD/svg11.dtd">
<svg xmlns="http://www.w3.org/2000/svg" version="1.1" width="266px" height="65px" style="shape-rendering:geometricPrecision; text-rendering:geometricPrecision; image-rendering:optimizeQuality; fill-rule:evenodd; clip-rule:evenodd" xmlns:xlink="http://www.w3.org/1999/xlink">
<g><path style="opacity:0.882" fill="#252423" d="M 37.5,12.5 C 37.5,11.1667 36.8333,10.5 35.5,10.5C 37.5378,5.79147 41.2044,3.1248 46.5,2.5C 46.5,3.83333 46.5,5.16667 46.5,6.5C 43.6915,6.69332 41.0248,7.35998 38.5,8.5C 38.7678,10.099 38.4345,11.4324 37.5,12.5 Z"/></g>
<g><path style="opacity:0.988" fill="#d5785b" d="M 59.5,8.5 C 58.9935,9.85892 57.9935,10.8589 56.5,11.5C 57.3094,13.0709 57.6427,14.7376 57.5,16.5C 56.1667,16.5 54.8333,16.5 53.5,16.5C 53.8807,15.0689 54.8807,14.2355 56.5,14C 53.8758,13.4236 53.2092,12.0902 54.5,10C 52.735,9.36026 51.0683,9.52692 49.5,10.5C 50.4737,8.91473 51.9737,7.91473 54,7.5C 55.6995,8.40609 57.5328,8.73943 59.5,8.5 Z"/></g>
<g><path style="opacity:0.153" fill="#e5e2e5" d="M 28.5,12.5 C 27.8333,12.5 27.1667,12.5 26.5,12.5C 27.1667,9.83333 27.8333,9.83333 28.5,12.5 Z"/></g>
<g><path style="opacity:0.998" fill="#050304" d="M 15.5,12.5 C 15.1667,13.1667 14.8333,13.8333 14.5,14.5C 14.1667,14.5 13.8333,14.5 13.5,14.5C 12.1667,14.5 10.8333,14.5 9.5,14.5C 9.16667,14.5 8.83333,14.5 8.5,14.5C 7.16667,14.5 5.83333,14.5 4.5,14.5C 4.5,16.5 4.5,18.5 4.5,20.5C 3.83333,20.5 3.16667,20.5 2.5,20.5C 2.5,17.8333 2.5,15.1667 2.5,12.5C 6.83333,12.5 11.1667,12.5 15.5,12.5 Z"/></g>
<g><path style="opacity:1" fill="#050203" d="M 35.5,10.5 C 36.8333,10.5 37.5,11.1667 37.5,12.5C 37.5,13.1667 37.5,13.8333 37.5,14.5C 36.5,14.5 35.5,14.5 34.5,14.5C 33.1667,14.5 31.8333,14.5 30.5,14.5C 29.8333,14.5 29.1667,14.5 28.5,14.5C 27.1667,14.5 25.8333,14.5 24.5,14.5C 24.1667,14.5 23.8333,14.5 23.5,14.5C 22.5,14.5 21.5,14.5 20.5,14.5C 19.5,14.5 18.5,14.5 17.5,14.5C 16.8333,14.5 16.1667,14.5 15.5,14.5C 15.1667,14.5 14.8333,14.5 14.5,14.5C 14.8333,13.8333 15.1667,13.1667 15.5,12.5C 19.1667,12.5 22.8333,12.5 26.5,12.5C 27.1667,12.5 27.8333,12.5 28.5,12.5C 31.3878,13.0102 33.7211,12.3435 35.5,10.5 Z"/></g>
<g><path style="opacity:0.478" fill="#9c9c9c" d="M 107.5,17.5 C 105.304,15.4554 102.97,15.1221 100.5,16.5C 99.6236,16.6309 98.9569,16.2975 98.5,15.5C 101.106,14.3483 103.773,14.1816 106.5,15C 107.252,15.6708 107.586,16.5041 107.5,17.5 Z"/></g>
<g><path style="opacity:0.286" fill="#c0c0c0" d="M 134.5,16.5 C 133.5,15.1667 132.5,15.1667 131.5,16.5C 132.5,13.8333 133.5,13.8333 134.5,16.5 Z"/></g>
<g><path style="opacity:0.47" fill="#a3a3a3" d="M 157.5,15.5 C 156.127,15.3433 154.793,15.51 153.5,16C 155.553,17.6779 155.887,19.5112 154.5,21.5C 154.5,23.5 153.5,24.5 151.5,24.5C 150.833,24.5 150.167,24.5 149.5,24.5C 149.5,21.5 149.5,18.5 149.5,15.5C 148.167,15.5 146.833,15.5 145.5,15.5C 145.821,21.0262 145.488,26.3595 144.5,31.5C 145.046,25.9333 144.379,20.6 142.5,15.5C 147.652,14.1863 152.652,14.1863 157.5,15.5 Z M 154.5,21.5 C 153.279,22.0283 152.113,22.695 151,23.5C 150.186,21.0982 150.353,18.7649 151.5,16.5C 153.756,17.4209 154.756,19.0876 154.5,21.5 Z"/></g>
<g><path style="opacity:0.466" fill="#969696" d="M 173.5,31.5 C 171.554,26.6042 170.887,21.2709 171.5,15.5C 170.5,15.5 169.5,15.5 168.5,15.5C 169.113,21.2709 168.446,26.6042 166.5,31.5C 166.666,26.4889 166.499,21.4889 166,16.5C 162.585,21.9624 161.085,21.2958 161.5,14.5C 167.167,14.5 172.833,14.5 178.5,14.5C 178.915,21.2958 177.415,21.9624 174,16.5C 173.501,21.4889 173.334,26.4889 173.5,31.5 Z"/></g>
<g><path style="opacity:0.475" fill="#8f8f8f" d="M 218.5,16.5 C 218.167,16.5 217.833,16.5 217.5,16.5C 215.833,15.1667 214.167,15.1667 212.5,16.5C 211.167,16.5 209.833,16.5 208.5,16.5C 208.167,16.5 207.833,16.5 207.5,16.5C 206.054,15.3871 204.387,15.2204 202.5,16C 203.811,21.4996 203.811,26.9996 202.5,32.5C 201.508,32.6716 200.842,32.3382 200.5,31.5C 201.117,31.3893 201.617,31.056 202,30.5C 202.667,26.1667 202.667,21.8333 202,17.5C 201.075,16.9535 200.242,16.2868 199.5,15.5C 206.5,14.1667 213.5,14.1667 220.5,15.5C 220.043,16.2975 219.376,16.6309 218.5,16.5 Z"/></g>
<g><path style="opacity:0.468" fill="#b1b1b1" d="M 254.5,15.5 C 252.901,15.2322 251.568,15.5655 250.5,16.5C 249.853,17.2739 249.52,18.2739 249.5,19.5C 249.64,21.0296 250.307,22.0296 251.5,22.5C 250.791,23.404 249.791,23.7373 248.5,23.5C 248.5,20.8333 248.5,18.1667 248.5,15.5C 246.585,15.2155 244.919,15.5489 243.5,16.5C 242.325,16.719 241.325,16.3857 240.5,15.5C 245.318,14.1876 249.985,14.1876 254.5,15.5 Z"/></g>
<g><path style="opacity:0.49" fill="#969495" d="M 24.5,14.5 C 25.8333,14.5 27.1667,14.5 28.5,14.5C 28.5,16.5 28.5,18.5 28.5,20.5C 27.1667,20.5 25.8333,20.5 24.5,20.5C 24.5,18.5 24.5,16.5 24.5,14.5 Z"/></g>
<g><path style="opacity:1" fill="#e81717" d="M 47.5,13.5 C 49.288,13.2148 50.9547,13.5481 52.5,14.5C 52.1373,15.1835 51.8039,15.8501 51.5,16.5C 50.8333,16.5 50.5,16.8333 50.5,17.5C 49.0221,18.9699 47.6888,20.6366 46.5,22.5C 44.9294,20.0293 43.9294,17.3626 43.5,14.5C 45.099,14.7678 46.4324,14.4345 47.5,13.5 Z"/></g>
<g><path style="opacity:0.314" fill="#d5d0c8" d="M 72.5,14.5 C 74.337,14.6395 74.6704,15.3061 73.5,16.5C 72.7025,16.0431 72.3691,15.3764 72.5,14.5 Z"/></g>
<g><path style="opacity:1" fill="#1e1e1e" d="M 100.5,16.5 C 102.97,15.1221 105.304,15.4554 107.5,17.5C 107.12,19.698 107.787,21.3646 109.5,22.5C 110.167,24.8333 110.833,27.1667 111.5,29.5C 111.672,30.4916 111.338,31.1583 110.5,31.5C 109.883,31.6107 109.383,31.944 109,32.5C 108.722,31.5842 108.222,30.9175 107.5,30.5C 106.596,29.791 106.263,28.791 106.5,27.5C 105.892,24.6733 104.892,22.0067 103.5,19.5C 103.167,18.5 102.5,17.8333 101.5,17.5C 101.5,16.8333 101.167,16.5 100.5,16.5 Z"/></g>
<g><path style="opacity:1" fill="#171717" d="M 120.5,16.5 C 119.892,21.9443 120.558,26.9443 122.5,31.5C 119.833,32.8333 117.167,32.8333 114.5,31.5C 116.446,26.6042 117.113,21.2709 116.5,15.5C 118.099,15.2322 119.432,15.5655 120.5,16.5 Z"/></g>
<g><path style="opacity:1" fill="#181919" d="M 149.5,24.5 C 149.232,27.1194 149.565,29.6194 150.5,32C 147.961,32.7958 145.628,32.6291 143.5,31.5C 143.833,31.5 144.167,31.5 144.5,31.5C 145.488,26.3595 145.821,21.0262 145.5,15.5C 146.833,15.5 148.167,15.5 149.5,15.5C 149.5,18.5 149.5,21.5 149.5,24.5 Z"/></g>
<g><path style="opacity:0.327" fill="#a9a9a9" d="M 196.5,21.5 C 195.945,19.2712 194.611,17.6046 192.5,16.5C 191.081,17.0047 190.415,18.0047 190.5,19.5C 189.9,18.0998 188.9,17.0998 187.5,16.5C 187.611,15.8826 187.944,15.3826 188.5,15C 191.604,14.8733 194.604,14.7066 197.5,14.5C 197.833,15.6667 198.167,16.8333 198.5,18C 198.392,19.6811 197.725,20.8478 196.5,21.5 Z"/></g>
<g><path style="opacity:1" fill="#050505" d="M 207.5,16.5 C 206.167,21.5 206.167,26.5 207.5,31.5C 206.081,32.4511 204.415,32.7845 202.5,32.5C 203.811,26.9996 203.811,21.4996 202.5,16C 204.387,15.2204 206.054,15.3871 207.5,16.5 Z"/></g>
<g><path style="opacity:0.082" fill="#adadad" d="M 235.5,15.5 C 238.167,16.1667 239.833,17.8333 240.5,20.5C 238.5,19.1667 236.833,17.5 235.5,15.5 Z"/></g>
<g><path style="opacity:1" fill="#191919" d="M 243.5,16.5 C 244.919,15.5489 246.585,15.2155 248.5,15.5C 248.5,18.1667 248.5,20.8333 248.5,23.5C 248.5,23.8333 248.5,24.1667 248.5,24.5C 247.99,27.3878 248.656,29.7211 250.5,31.5C 247.833,32.8333 245.167,32.8333 242.5,31.5C 243.809,29.4294 244.475,26.9294 244.5,24C 244.497,21.3097 244.164,18.8097 243.5,16.5 Z"/></g>
<g><path style="opacity:0.788" fill="#2b292a" d="M 8.5,14.5 C 8.83333,14.5 9.16667,14.5 9.5,14.5C 9.5,16.5 9.5,18.5 9.5,20.5C 10.5,20.5 11.5,20.5 12.5,20.5C 12.5,21.1667 12.5,21.8333 12.5,22.5C 11.5,22.5 10.5,22.5 9.5,22.5C 9.5,23.8333 9.5,25.1667 9.5,26.5C 9.5,27.1667 9.5,27.8333 9.5,28.5C 9.07729,30.7812 9.74395,32.4479 11.5,33.5C 11.8333,33.5 12.1667,33.5 12.5,33.5C 12.8333,33.5 13.1667,33.5 13.5,33.5C 14.1667,33.5 14.8333,33.5 15.5,33.5C 15.5,34.1667 15.5,34.8333 15.5,35.5C 14.6618,35.8417 14.3284,36.5084 14.5,37.5C 11.4281,37.8174 8.42814,37.4841 5.5,36.5C 4.42682,31.172 3.42682,25.8386 2.5,20.5C 3.16667,20.5 3.83333,20.5 4.5,20.5C 5.83333,20.5 7.16667,20.5 8.5,20.5C 8.5,18.5 8.5,16.5 8.5,14.5 Z"/></g>
<g><path style="opacity:1" fill="#ce3732" d="M 53.5,16.5 C 52.8333,16.5 52.1667,16.5 51.5,16.5C 51.8039,15.8501 52.1373,15.1835 52.5,14.5C 50.9547,13.5481 49.288,13.2148 47.5,13.5C 44.6122,12.9898 42.2789,13.6565 40.5,15.5C 40.6641,18.1873 40.4974,20.854 40,23.5C 38.3369,27.3261 37.1702,31.3261 36.5,35.5C 35.5318,33.3926 35.1984,31.0593 35.5,28.5C 36.8333,28.5 37.5,27.8333 37.5,26.5C 37.9221,22.1214 38.5888,17.788 39.5,13.5C 42.9052,12.5753 46.2386,11.5753 49.5,10.5C 51.0683,9.52692 52.735,9.36026 54.5,10C 53.2092,12.0902 53.8758,13.4236 56.5,14C 54.8807,14.2355 53.8807,15.0689 53.5,16.5 Z"/></g>
<g><path style="opacity:1" fill="#161616" d="M 212.5,16.5 C 214.167,15.1667 215.833,15.1667 217.5,16.5C 217.195,21.7616 217.529,26.9283 218.5,32C 216.527,32.4955 214.527,32.6621 212.5,32.5C 213.802,27.0671 213.802,21.7337 212.5,16.5 Z"/></g>
<g><path style="opacity:0.522" fill="#a4a4a4" d="M 226.5,15.5 C 225.5,17.1667 224.167,18.5 222.5,19.5C 222.833,17.1667 224.167,15.8333 226.5,15.5 Z"/></g>
<g><path style="opacity:0.459" fill="#908d8f" d="M 8.5,14.5 C 8.5,16.5 8.5,18.5 8.5,20.5C 7.16667,20.5 5.83333,20.5 4.5,20.5C 4.5,18.5 4.5,16.5 4.5,14.5C 5.83333,14.5 7.16667,14.5 8.5,14.5 Z"/></g>
<g><path style="opacity:0.408" fill="#999898" d="M 9.5,14.5 C 10.8333,14.5 12.1667,14.5 13.5,14.5C 13.7947,16.7354 13.4614,18.7354 12.5,20.5C 11.5,20.5 10.5,20.5 9.5,20.5C 9.5,18.5 9.5,16.5 9.5,14.5 Z"/></g>
<g><path style="opacity:0.82" fill="#343233" d="M 23.5,14.5 C 23.8333,14.5 24.1667,14.5 24.5,14.5C 24.5,16.5 24.5,18.5 24.5,20.5C 24.5,21.1667 24.5,21.8333 24.5,22.5C 24.5,23.8333 24.5,25.1667 24.5,26.5C 25.8333,26.5 27.1667,26.5 28.5,26.5C 29.1667,26.5 29.8333,26.5 30.5,26.5C 30.8333,26.5 31.1667,26.5 31.5,26.5C 31.5,28.8333 31.5,31.1667 31.5,33.5C 30.5,33.5 29.5,33.5 28.5,33.5C 28.5,31.8333 28.5,30.1667 28.5,28.5C 27.1667,28.5 25.8333,28.5 24.5,28.5C 24.5,30.8333 24.5,33.1667 24.5,35.5C 24.1667,35.5 23.8333,35.5 23.5,35.5C 23.5,33.1667 23.5,30.8333 23.5,28.5C 23.5,27.8333 23.5,27.1667 23.5,26.5C 23.5,25.1667 23.5,23.8333 23.5,22.5C 22.5,22.5 21.5,22.5 20.5,22.5C 20.5,21.8333 20.5,21.1667 20.5,20.5C 21.5,20.5 22.5,20.5 23.5,20.5C 23.5,18.5 23.5,16.5 23.5,14.5 Z"/></g>
<g><path style="opacity:1" fill="#dd281f" d="M 47.5,13.5 C 46.4324,14.4345 45.099,14.7678 43.5,14.5C 43.9294,17.3626 44.9294,20.0293 46.5,22.5C 47.6888,20.6366 49.0221,18.9699 50.5,17.5C 50.5,18.5 50.5,19.5 50.5,20.5C 52.1667,20.5 53.8333,20.5 55.5,20.5C 55.2014,22.4553 54.2014,23.7886 52.5,24.5C 51.0222,24.238 49.6888,24.5713 48.5,25.5C 48.6236,26.1067 48.9569,26.44 49.5,26.5C 50.6782,27.9986 52.3449,28.9986 54.5,29.5C 54.3764,30.1067 54.0431,30.44 53.5,30.5C 52.8333,30.5 52.1667,30.5 51.5,30.5C 48.2777,29.5898 45.6111,27.9232 43.5,25.5C 43.6048,21.7417 42.6048,18.4083 40.5,15.5C 42.2789,13.6565 44.6122,12.9898 47.5,13.5 Z"/></g>
<g><path style="opacity:1" fill="#1a1a1a" d="M 134.5,16.5 C 134.166,19.491 135.166,21.8243 137.5,23.5C 137.794,26.7541 139.127,29.4208 141.5,31.5C 139.167,32.8333 136.833,32.8333 134.5,31.5C 134.5,30.5 134.5,29.5 134.5,28.5C 134.5,27.8333 134.167,27.5 133.5,27.5C 132.537,23.8993 131.87,20.2326 131.5,16.5C 132.5,15.1667 133.5,15.1667 134.5,16.5 Z"/></g>
<g><path style="opacity:0.404" fill="#b5b5b5" d="M 157.5,15.5 C 159.246,16.2495 160.246,17.5828 160.5,19.5C 159.749,21.9963 158.749,24.3296 157.5,26.5C 154.77,25.0086 154.937,23.6752 158,22.5C 158.556,20.1152 158.39,17.7819 157.5,15.5 Z"/></g>
<g><path style="opacity:1" fill="#161616" d="M 226.5,15.5 C 227.552,15.3505 228.552,15.5172 229.5,16C 226.5,19.5304 225.833,23.3638 227.5,27.5C 227.433,28.9587 227.766,30.2921 228.5,31.5C 227.5,31.5 226.5,31.5 225.5,31.5C 224.833,30.1667 223.833,29.1667 222.5,28.5C 222.5,25.5 222.5,22.5 222.5,19.5C 224.167,18.5 225.5,17.1667 226.5,15.5 Z"/></g>
<g><path style="opacity:0.196" fill="#ffc9af" d="M 51.5,16.5 C 52.1667,16.5 52.8333,16.5 53.5,16.5C 54.8333,16.5 56.1667,16.5 57.5,16.5C 57.2671,18.0618 56.6005,19.3951 55.5,20.5C 53.8333,20.5 52.1667,20.5 50.5,20.5C 50.5,19.5 50.5,18.5 50.5,17.5C 50.5,16.8333 50.8333,16.5 51.5,16.5 Z"/></g>
<g><path style="opacity:1" fill="#171717" d="M 187.5,16.5 C 188.9,17.0998 189.9,18.0998 190.5,19.5C 191.287,21.1042 192.62,21.7709 194.5,21.5C 196.235,23.2345 197.568,25.2345 198.5,27.5C 198.444,28.737 197.944,29.737 197,30.5C 196.764,28.8807 195.931,27.8807 194.5,27.5C 193.486,26.3263 192.153,25.6596 190.5,25.5C 187.924,23.1125 186.924,20.1125 187.5,16.5 Z"/></g>
<g><path style="opacity:0.28" fill="#cccccc" d="M 254.5,15.5 C 255.496,15.4142 256.329,15.7476 257,16.5C 257.789,18.7116 257.622,20.7116 256.5,22.5C 256.834,19.812 256.168,17.4786 254.5,15.5 Z"/></g>
<g><path style="opacity:0.361" fill="#b4b2b3" d="M 20.5,14.5 C 21.5,14.5 22.5,14.5 23.5,14.5C 23.5,16.5 23.5,18.5 23.5,20.5C 22.5,20.5 21.5,20.5 20.5,20.5C 20.5,19.8333 20.5,19.1667 20.5,18.5C 23.1667,17.8333 23.1667,17.1667 20.5,16.5C 20.5,15.8333 20.5,15.1667 20.5,14.5 Z"/></g>
<g><path style="opacity:0.241" fill="#b5b4b3" d="M 30.5,14.5 C 31.8333,14.5 33.1667,14.5 34.5,14.5C 34.7678,16.099 34.4345,17.4324 33.5,18.5C 33.5,19.1667 33.5,19.8333 33.5,20.5C 32.5,20.5 31.5,20.5 30.5,20.5C 30.5,18.5 30.5,16.5 30.5,14.5 Z M 33.5,18.5 C 31.663,18.3605 31.3296,17.6939 32.5,16.5C 33.2975,16.9569 33.6309,17.6236 33.5,18.5 Z"/></g>
<g><path style="opacity:1" fill="#efa859" d="M 59.5,8.5 C 60.6737,9.51369 61.3404,10.847 61.5,12.5C 61.8417,13.3382 62.5084,13.6716 63.5,13.5C 65.4554,14.4474 65.7887,15.7807 64.5,17.5C 62.8794,18.695 61.2128,19.695 59.5,20.5C 58.8333,20.5 58.1667,20.5 57.5,20.5C 56.8333,20.5 56.1667,20.5 55.5,20.5C 56.6005,19.3951 57.2671,18.0618 57.5,16.5C 57.6427,14.7376 57.3094,13.0709 56.5,11.5C 57.9935,10.8589 58.9935,9.85892 59.5,8.5 Z"/></g>
<g><path style="opacity:0.616" fill="#a5a5a5" d="M 88.5,18.5 C 88.5,18.8333 88.5,19.1667 88.5,19.5C 87.3063,15.4812 86.3063,15.6479 85.5,20C 85.5186,21.833 86.1852,23.333 87.5,24.5C 82.6369,22.0132 82.3035,18.8465 86.5,15C 89.8035,14.7848 92.9701,14.6181 96,14.5C 98,16.8333 98,19.1667 96,21.5C 94.9667,18.9673 93.1334,17.3006 90.5,16.5C 89.4777,16.8555 88.811,17.5222 88.5,18.5 Z"/></g>
<g><path style="opacity:1" fill="#141414" d="M 88.5,19.5 C 90.6761,21.5152 93.1761,23.1819 96,24.5C 96.8077,26.5787 96.641,28.5787 95.5,30.5C 94.9955,27.6582 93.3289,26.3249 90.5,26.5C 90.0269,25.0937 89.0269,24.427 87.5,24.5C 86.1852,23.333 85.5186,21.833 85.5,20C 86.3063,15.6479 87.3063,15.4812 88.5,19.5 Z"/></g>
<g><path style="opacity:0.918" fill="#8a8a8a" d="M 134.5,16.5 C 136.293,18.4261 137.293,20.7594 137.5,23.5C 135.166,21.8243 134.166,19.491 134.5,16.5 Z"/></g>
<g><path style="opacity:1" fill="#0a0a0a" d="M 173.5,31.5 C 170.833,32.8333 168.167,32.8333 165.5,31.5C 165.833,31.5 166.167,31.5 166.5,31.5C 168.446,26.6042 169.113,21.2709 168.5,15.5C 169.5,15.5 170.5,15.5 171.5,15.5C 170.887,21.2709 171.554,26.6042 173.5,31.5 Z"/></g>
<g><path style="opacity:1" fill="#2d2d2d" d="M 235.5,15.5 C 236.833,17.5 238.5,19.1667 240.5,20.5C 241.328,25.8519 239.328,29.5185 234.5,31.5C 234.5,30.8333 234.5,30.1667 234.5,29.5C 235.025,24.8602 234.358,20.5269 232.5,16.5C 233.209,15.596 234.209,15.2627 235.5,15.5 Z"/></g>
<g><path style="opacity:0.869" fill="#363435" d="M 28.5,14.5 C 29.1667,14.5 29.8333,14.5 30.5,14.5C 30.5,16.5 30.5,18.5 30.5,20.5C 31.5,20.5 32.5,20.5 33.5,20.5C 33.5,21.1667 33.5,21.8333 33.5,22.5C 32.5,22.5 31.5,22.5 30.5,22.5C 30.5,23.8333 30.5,25.1667 30.5,26.5C 29.8333,26.5 29.1667,26.5 28.5,26.5C 27.1667,26.5 25.8333,26.5 24.5,26.5C 24.5,25.1667 24.5,23.8333 24.5,22.5C 24.5,21.8333 24.5,21.1667 24.5,20.5C 25.8333,20.5 27.1667,20.5 28.5,20.5C 28.5,18.5 28.5,16.5 28.5,14.5 Z"/></g>
<g><path style="opacity:0.992" fill="#f2c363" d="M 63.5,13.5 C 64.8333,13.5 66.1667,13.5 67.5,13.5C 67.0371,16.4824 66.7038,19.4824 66.5,22.5C 65.5,22.5 64.5,22.5 63.5,22.5C 63.7413,24.8863 63.0746,26.8863 61.5,28.5C 61.1667,28.5 60.8333,28.5 60.5,28.5C 60.5987,25.7628 60.2653,23.0961 59.5,20.5C 61.2128,19.695 62.8794,18.695 64.5,17.5C 65.7887,15.7807 65.4554,14.4474 63.5,13.5 Z"/></g>
<g><path style="opacity:0.71" fill="#a5a5a5" d="M 107.5,17.5 C 108.931,18.7804 109.598,20.4471 109.5,22.5C 107.787,21.3646 107.12,19.698 107.5,17.5 Z"/></g>
<g><path style="opacity:0.416" fill="#a0a0a0" d="M 121.5,16.5 C 121.167,16.5 120.833,16.5 120.5,16.5C 119.432,15.5655 118.099,15.2322 116.5,15.5C 117.113,21.2709 116.446,26.6042 114.5,31.5C 115.58,28.2569 115.747,24.9236 115,21.5C 114.295,24.4757 113.129,27.1423 111.5,29.5C 110.833,27.1667 110.167,24.8333 109.5,22.5C 110.222,22.9175 110.722,23.5842 111,24.5C 112.118,21.1447 113.618,17.978 115.5,15C 118.227,14.1816 120.894,14.3483 123.5,15.5C 123.043,16.2975 122.376,16.6309 121.5,16.5 Z"/></g>
<g><path style="opacity:0.145" fill="#d3d3d3" d="M 190.5,19.5 C 192.153,19.6596 193.486,20.3263 194.5,21.5C 192.62,21.7709 191.287,21.1042 190.5,19.5 Z"/></g>
<g><path style="opacity:1" fill="#373536" d="M 13.5,14.5 C 13.8333,14.5 14.1667,14.5 14.5,14.5C 14.8333,14.5 15.1667,14.5 15.5,14.5C 15.2011,16.604 15.5344,18.604 16.5,20.5C 17.2975,20.0431 17.6309,19.3764 17.5,18.5C 17.5,17.8333 17.5,17.1667 17.5,16.5C 17.5,15.8333 17.5,15.1667 17.5,14.5C 18.5,14.5 19.5,14.5 20.5,14.5C 20.5,15.1667 20.5,15.8333 20.5,16.5C 20.5,17.1667 20.5,17.8333 20.5,18.5C 20.5,19.1667 20.5,19.8333 20.5,20.5C 20.5,21.1667 20.5,21.8333 20.5,22.5C 19.5,22.5 18.5,22.5 17.5,22.5C 16.8333,22.5 16.1667,22.5 15.5,22.5C 14.5,22.5 13.5,22.5 12.5,22.5C 12.5,21.8333 12.5,21.1667 12.5,20.5C 13.4614,18.7354 13.7947,16.7354 13.5,14.5 Z"/></g>
<g><path style="opacity:0.256" fill="#bebdbe" d="M 15.5,14.5 C 16.1667,14.5 16.8333,14.5 17.5,14.5C 17.5,15.1667 17.5,15.8333 17.5,16.5C 16.1667,17.1667 16.1667,17.8333 17.5,18.5C 17.6309,19.3764 17.2975,20.0431 16.5,20.5C 15.5344,18.604 15.2011,16.604 15.5,14.5 Z"/></g>
<g><path style="opacity:0.089" fill="#cacaca" d="M 103.5,19.5 C 104.892,22.0067 105.892,24.6733 106.5,27.5C 105.034,26.653 104.2,25.3197 104,23.5C 103.278,26.2605 103.445,28.9272 104.5,31.5C 103.206,29.9522 102.539,27.9522 102.5,25.5C 102.505,23.3035 102.838,21.3035 103.5,19.5 Z"/></g>
<g><path style="opacity:0.247" fill="#c2bfc1" d="M 5.5,22.5 C 6.5,22.5 7.5,22.5 8.5,22.5C 8.5,23.8333 8.5,25.1667 8.5,26.5C 7.5,26.5 6.5,26.5 5.5,26.5C 5.5,25.1667 5.5,23.8333 5.5,22.5 Z"/></g>
<g><path style="opacity:0.229" fill="#d2d0d2" d="M 12.5,22.5 C 12.5,23.8333 12.5,25.1667 12.5,26.5C 11.5,26.5 10.5,26.5 9.5,26.5C 9.5,25.1667 9.5,23.8333 9.5,22.5C 10.5,22.5 11.5,22.5 12.5,22.5 Z"/></g>
<g><path style="opacity:0.088" fill="#e3e3e3" d="M 15.5,22.5 C 16.1667,22.5 16.8333,22.5 17.5,22.5C 17.5,23.8333 17.5,25.1667 17.5,26.5C 15.8235,25.8166 15.1568,24.4832 15.5,22.5 Z"/></g>
<g><path style="opacity:0.053" fill="#e1e0e1" d="M 20.5,22.5 C 21.5,22.5 22.5,22.5 23.5,22.5C 23.5,23.8333 23.5,25.1667 23.5,26.5C 22.5,26.5 21.5,26.5 20.5,26.5C 20.5,25.1667 20.5,23.8333 20.5,22.5 Z"/></g>
<g><path style="opacity:0.631" fill="#8d8d8d" d="M 187.5,16.5 C 186.924,20.1125 187.924,23.1125 190.5,25.5C 185.7,23.5968 184.7,20.5968 187.5,16.5 Z"/></g>
<g><path style="opacity:0.465" fill="#969696" d="M 207.5,16.5 C 207.833,16.5 208.167,16.5 208.5,16.5C 208.5,18.5 208.5,20.5 208.5,22.5C 209.833,22.5 211.167,22.5 212.5,22.5C 212.5,20.5 212.5,18.5 212.5,16.5C 213.802,21.7337 213.802,27.0671 212.5,32.5C 211.508,32.6716 210.842,32.3382 210.5,31.5C 211.117,31.3893 211.617,31.056 212,30.5C 212.495,28.5273 212.662,26.5273 212.5,24.5C 211.167,24.5 209.833,24.5 208.5,24.5C 207.532,26.6074 207.198,28.9407 207.5,31.5C 206.167,26.5 206.167,21.5 207.5,16.5 Z M 208.5,16.5 C 209.833,16.5 211.167,16.5 212.5,16.5C 212.5,18.5 212.5,20.5 212.5,22.5C 211.167,22.5 209.833,22.5 208.5,22.5C 208.5,20.5 208.5,18.5 208.5,16.5 Z M 208.5,24.5 C 209.833,24.5 211.167,24.5 212.5,24.5C 212.662,26.5273 212.495,28.5273 212,30.5C 211.617,31.056 211.117,31.3893 210.5,31.5C 208.656,29.7211 207.99,27.3878 208.5,24.5 Z"/></g>
<g><path style="opacity:0.714" fill="#8d8d8d" d="M 222.5,19.5 C 222.5,22.5 222.5,25.5 222.5,28.5C 219.833,25.5 219.833,22.5 222.5,19.5 Z"/></g>
<g><path style="opacity:0.159" fill="#c0c0c0" d="M 226.5,15.5 C 229.5,14.1667 232.5,14.1667 235.5,15.5C 234.209,15.2627 233.209,15.596 232.5,16.5C 230.248,16.9156 228.748,18.249 228,20.5C 227.503,22.8098 227.337,25.1432 227.5,27.5C 225.833,23.3638 226.5,19.5304 229.5,16C 228.552,15.5172 227.552,15.3505 226.5,15.5 Z"/></g>
<g><path style="opacity:0.807" fill="#727272" d="M 250.5,16.5 C 252.344,18.2789 253.01,20.6122 252.5,23.5C 253.5,23.5 254.5,23.5 255.5,23.5C 255.158,24.3382 254.492,24.6716 253.5,24.5C 251.833,24.5 250.167,24.5 248.5,24.5C 248.5,24.1667 248.5,23.8333 248.5,23.5C 249.791,23.7373 250.791,23.404 251.5,22.5C 251.675,20.3792 251.341,18.3792 250.5,16.5 Z"/></g>
<g><path style="opacity:1" fill="#212121" d="M 250.5,16.5 C 251.568,15.5655 252.901,15.2322 254.5,15.5C 256.168,17.4786 256.834,19.812 256.5,22.5C 256.5,23.1667 256.167,23.5 255.5,23.5C 254.5,23.5 253.5,23.5 252.5,23.5C 253.01,20.6122 252.344,18.2789 250.5,16.5 Z"/></g>
<g><path style="opacity:0.263" fill="#c0bec0" d="M 24.5,22.5 C 25.8333,22.5 27.1667,22.5 28.5,22.5C 28.5,23.8333 28.5,25.1667 28.5,26.5C 28.5,25.1667 28.5,23.8333 28.5,22.5C 27.1667,22.5 25.8333,22.5 24.5,22.5 Z"/></g>
<g><path style="opacity:0.757" fill="#e9d39e" d="M 61.5,12.5 C 65.649,11.9197 69.3157,12.5864 72.5,14.5C 71.1667,14.5 69.8333,14.5 68.5,14.5C 68.467,19.1207 68.1337,23.7874 67.5,28.5C 65.5,28.5 63.5,28.5 61.5,28.5C 63.0746,26.8863 63.7413,24.8863 63.5,22.5C 64.5,22.5 65.5,22.5 66.5,22.5C 66.7038,19.4824 67.0371,16.4824 67.5,13.5C 66.1667,13.5 64.8333,13.5 63.5,13.5C 62.5084,13.6716 61.8417,13.3382 61.5,12.5 Z"/></g>
<g><path style="opacity:0.076" fill="#e5e5e5" d="M 120.5,16.5 C 120.833,16.5 121.167,16.5 121.5,16.5C 121.221,21.5947 121.555,26.5947 122.5,31.5C 120.558,26.9443 119.892,21.9443 120.5,16.5 Z"/></g>
<g><path style="opacity:0.559" fill="#9b9b9b" d="M 131.5,16.5 C 131.87,20.2326 132.537,23.8993 133.5,27.5C 130.99,27.0535 128.99,27.7202 127.5,29.5C 126.833,29.8333 126.167,30.1667 125.5,30.5C 126.988,25.5329 128.988,20.8662 131.5,16.5 Z M 130.5,23.5 C 132.332,24.1405 132.665,25.1405 131.5,26.5C 130.614,25.675 130.281,24.675 130.5,23.5 Z"/></g>
<g><path style="opacity:0.596" fill="#636463" d="M 101.5,17.5 C 102.5,17.8333 103.167,18.5 103.5,19.5C 102.838,21.3035 102.505,23.3035 102.5,25.5C 102.539,27.9522 103.206,29.9522 104.5,31.5C 102.833,32.8333 101.167,32.8333 99.5,31.5C 101.436,27.2853 102.103,22.6186 101.5,17.5 Z"/></g>
<g><path style="opacity:1" fill="#1b1b1b" d="M 157.5,15.5 C 158.39,17.7819 158.556,20.1152 158,22.5C 154.937,23.6752 154.77,25.0086 157.5,26.5C 157.427,28.0269 158.094,29.0269 159.5,29.5C 160.5,29.8333 161.167,30.5 161.5,31.5C 159.03,32.8779 156.696,32.5446 154.5,30.5C 153.529,28.5168 152.529,26.5168 151.5,24.5C 153.5,24.5 154.5,23.5 154.5,21.5C 155.887,19.5112 155.553,17.6779 153.5,16C 154.793,15.51 156.127,15.3433 157.5,15.5 Z"/></g>
<g><path style="opacity:0.78" fill="#807d7e" d="M 33.5,22.5 C 33.8432,24.4832 33.1765,25.8166 31.5,26.5C 31.1667,26.5 30.8333,26.5 30.5,26.5C 30.5,25.1667 30.5,23.8333 30.5,22.5C 31.5,22.5 32.5,22.5 33.5,22.5 Z"/></g>
<g><path style="opacity:1" fill="#e71419" d="M 40.5,15.5 C 42.6048,18.4083 43.6048,21.7417 43.5,25.5C 43.2798,29.478 42.2798,33.1446 40.5,36.5C 39.391,36.4431 38.391,36.1098 37.5,35.5C 37.1667,35.5 36.8333,35.5 36.5,35.5C 37.1702,31.3261 38.3369,27.3261 40,23.5C 40.4974,20.854 40.6641,18.1873 40.5,15.5 Z"/></g>
<g><path style="opacity:0.149" fill="#ffcaa9" d="M 52.5,24.5 C 52.1788,26.0481 51.1788,26.7148 49.5,26.5C 48.9569,26.44 48.6236,26.1067 48.5,25.5C 49.6888,24.5713 51.0222,24.238 52.5,24.5 Z"/></g>
<g><path style="opacity:1" fill="#f17430" d="M 55.5,20.5 C 56.1667,20.5 56.8333,20.5 57.5,20.5C 57.665,23.8499 57.4983,27.1832 57,30.5C 54.9614,31.9783 54.1281,33.9783 54.5,36.5C 54.5,36.8333 54.5,37.1667 54.5,37.5C 54.1667,37.5 53.8333,37.5 53.5,37.5C 53.2786,36.2652 52.6119,35.2652 51.5,34.5C 52.8532,33.4763 53.5198,32.143 53.5,30.5C 54.0431,30.44 54.3764,30.1067 54.5,29.5C 52.3449,28.9986 50.6782,27.9986 49.5,26.5C 51.1788,26.7148 52.1788,26.0481 52.5,24.5C 54.2014,23.7886 55.2014,22.4553 55.5,20.5 Z"/></g>
<g><path style="opacity:0.224" fill="#bbbbbb" d="M 87.5,24.5 C 89.0269,24.427 90.0269,25.0937 90.5,26.5C 88.9731,26.573 87.9731,25.9063 87.5,24.5 Z"/></g>
<g><path style="opacity:0.788" fill="#525051" d="M 17.5,22.5 C 18.5,22.5 19.5,22.5 20.5,22.5C 20.5,23.8333 20.5,25.1667 20.5,26.5C 21.5,26.5 22.5,26.5 23.5,26.5C 23.5,27.1667 23.5,27.8333 23.5,28.5C 21.8212,28.2852 20.8212,28.9519 20.5,30.5C 20.5,31.5 20.5,32.5 20.5,33.5C 20.5,34.1667 20.5,34.8333 20.5,35.5C 19.5,35.5 18.5,35.5 17.5,35.5C 17.5,34.8333 17.5,34.1667 17.5,33.5C 17.5,32.5 17.5,31.5 17.5,30.5C 17.5,29.8333 17.5,29.1667 17.5,28.5C 20.1667,27.8333 20.1667,27.1667 17.5,26.5C 17.5,25.1667 17.5,23.8333 17.5,22.5 Z"/></g>
<g><path style="opacity:0.545" fill="#b4b3b3" d="M 88.5,18.5 C 91.2235,20.2812 94.0568,21.9479 97,23.5C 99.4333,27.5326 98.6,30.6992 94.5,33C 91.2251,33.0705 88.0584,33.2371 85,33.5C 83.6253,31.0632 83.1253,28.3965 83.5,25.5C 85.1788,25.2852 86.1788,25.9519 86.5,27.5C 85.8826,27.3893 85.3826,27.056 85,26.5C 84.5065,28.1341 84.3398,29.8008 84.5,31.5C 86.099,31.7678 87.4324,31.4345 88.5,30.5C 90.4241,31.9596 92.0908,31.6263 93.5,29.5C 92.6602,28.265 91.6602,27.265 90.5,26.5C 93.3289,26.3249 94.9955,27.6582 95.5,30.5C 96.641,28.5787 96.8077,26.5787 96,24.5C 93.1761,23.1819 90.6761,21.5152 88.5,19.5C 88.5,19.1667 88.5,18.8333 88.5,18.5 Z"/></g>
<g><path style="opacity:0.161" fill="#c8c8c8" d="M 137.5,23.5 C 139.341,25.8485 140.674,28.5152 141.5,31.5C 139.127,29.4208 137.794,26.7541 137.5,23.5 Z"/></g>
<g><path style="opacity:0.277" fill="#b3b3b3" d="M 243.5,16.5 C 244.164,18.8097 244.497,21.3097 244.5,24C 244.475,26.9294 243.809,29.4294 242.5,31.5C 243.445,26.5947 243.779,21.5947 243.5,16.5 Z"/></g>
<g><path style="opacity:0.812" fill="#403e3f" d="M 12.5,22.5 C 13.5,22.5 14.5,22.5 15.5,22.5C 15.1568,24.4832 15.8235,25.8166 17.5,26.5C 20.1667,27.1667 20.1667,27.8333 17.5,28.5C 15.744,29.5521 15.0773,31.2188 15.5,33.5C 14.8333,33.5 14.1667,33.5 13.5,33.5C 13.5,31.8333 13.5,30.1667 13.5,28.5C 12.1667,28.5 10.8333,28.5 9.5,28.5C 9.5,27.8333 9.5,27.1667 9.5,26.5C 10.5,26.5 11.5,26.5 12.5,26.5C 12.5,25.1667 12.5,23.8333 12.5,22.5 Z"/></g>
<g><path style="opacity:1" fill="#1b1a19" d="M 34.5,14.5 C 35.5,14.5 36.5,14.5 37.5,14.5C 35.6884,20.5259 34.355,26.6925 33.5,33C 33.042,36.9192 34.542,39.7526 38,41.5C 38.7891,43.7116 38.6225,45.7116 37.5,47.5C 37.5,46.8333 37.5,46.1667 37.5,45.5C 37.5,44.1667 36.8333,43.5 35.5,43.5C 34.8333,41.5 33.5,40.1667 31.5,39.5C 31.5,38.8333 31.5,38.1667 31.5,37.5C 31.5,36.1667 31.5,34.8333 31.5,33.5C 31.5,31.1667 31.5,28.8333 31.5,26.5C 33.1765,25.8166 33.8432,24.4832 33.5,22.5C 33.5,21.8333 33.5,21.1667 33.5,20.5C 33.5,19.8333 33.5,19.1667 33.5,18.5C 34.4345,17.4324 34.7678,16.099 34.5,14.5 Z"/></g>
<g><path style="opacity:0.212" fill="#fbb9b7" d="M 37.5,26.5 C 37.5,27.8333 36.8333,28.5 35.5,28.5C 35.5,27.1667 36.1667,26.5 37.5,26.5 Z"/></g>
<g><path style="opacity:0.365" fill="#a6a6a6" d="M 100.5,16.5 C 101.167,16.5 101.5,16.8333 101.5,17.5C 102.103,22.6186 101.436,27.2853 99.5,31.5C 100.445,26.5947 100.779,21.5947 100.5,16.5 Z"/></g>
<g><path style="opacity:0.698" fill="#6b6b6a" d="M 86.5,27.5 C 87.1667,28.5 87.8333,29.5 88.5,30.5C 87.4324,31.4345 86.099,31.7678 84.5,31.5C 84.3398,29.8008 84.5065,28.1341 85,26.5C 85.3826,27.056 85.8826,27.3893 86.5,27.5 Z"/></g>
<g><path style="opacity:0.255" fill="#c3c3c3" d="M 157.5,26.5 C 158.906,26.9731 159.573,27.9731 159.5,29.5C 158.094,29.0269 157.427,28.0269 157.5,26.5 Z"/></g>
<g><path style="opacity:0.076" fill="#dedede" d="M 248.5,24.5 C 250.167,24.5 251.833,24.5 253.5,24.5C 252.432,25.4345 251.099,25.7678 249.5,25.5C 249.325,27.6208 249.659,29.6208 250.5,31.5C 248.656,29.7211 247.99,27.3878 248.5,24.5 Z"/></g>
<g><path style="opacity:0.388" fill="#acaaab" d="M 9.5,28.5 C 10.8333,28.5 12.1667,28.5 13.5,28.5C 13.5,30.1667 13.5,31.8333 13.5,33.5C 13.1667,33.5 12.8333,33.5 12.5,33.5C 12.1667,29.5 11.8333,29.5 11.5,33.5C 9.74395,32.4479 9.07729,30.7812 9.5,28.5 Z"/></g>
<g><path style="opacity:0.322" fill="#b1b0b0" d="M 17.5,28.5 C 17.5,29.1667 17.5,29.8333 17.5,30.5C 16.1667,31.5 16.1667,32.5 17.5,33.5C 17.5,34.1667 17.5,34.8333 17.5,35.5C 16.8333,35.5 16.1667,35.5 15.5,35.5C 15.5,34.8333 15.5,34.1667 15.5,33.5C 15.0773,31.2188 15.744,29.5521 17.5,28.5 Z"/></g>
<g><path style="opacity:0.016" fill="#cecece" d="M 222.5,28.5 C 223.833,29.1667 224.833,30.1667 225.5,31.5C 223.5,31.5 222.5,30.5 222.5,28.5 Z"/></g>
<g><path style="opacity:0.027" fill="#cdcdcd" d="M 227.5,27.5 C 228.488,28.795 229.488,30.1283 230.5,31.5C 229.833,31.5 229.167,31.5 228.5,31.5C 227.766,30.2921 227.433,28.9587 227.5,27.5 Z"/></g>
<g><path style="opacity:0.055" fill="#d0d0d0" d="M 240.5,20.5 C 242.773,28.2548 239.773,32.5882 231.5,33.5C 229.955,33.4892 228.622,33.1558 227.5,32.5C 230.059,32.8016 232.393,32.4682 234.5,31.5C 239.328,29.5185 241.328,25.8519 240.5,20.5 Z"/></g>
<g><path style="opacity:0.28" fill="#b1afb0" d="M 6.5,28.5 C 7.64911,28.7911 8.31577,29.6244 8.5,31C 8.16667,31.8333 7.83333,32.6667 7.5,33.5C 6.54811,31.9547 6.21478,30.288 6.5,28.5 Z"/></g>
<g><path style="opacity:1" fill="#242222" d="M 127.5,29.5 C 128.887,32.3117 127.887,33.1451 124.5,32C 125.056,31.6174 125.389,31.1174 125.5,30.5C 126.167,30.1667 126.833,29.8333 127.5,29.5 Z"/></g>
<g><path style="opacity:0.668" fill="#a4a4a4" d="M 194.5,21.5 C 195.167,21.5 195.833,21.5 196.5,21.5C 200.803,25.8267 200.469,29.66 195.5,33C 192.428,32.9371 189.428,33.1037 186.5,33.5C 185.167,30.8333 185.167,28.1667 186.5,25.5C 188.164,27.9952 190.33,29.9952 193,31.5C 194.188,30.4366 194.688,29.1033 194.5,27.5C 195.931,27.8807 196.764,28.8807 197,30.5C 197.944,29.737 198.444,28.737 198.5,27.5C 197.568,25.2345 196.235,23.2345 194.5,21.5 Z"/></g>
<g><path style="opacity:0.106" fill="#d2d2d2" d="M 190.5,25.5 C 192.153,25.6596 193.486,26.3263 194.5,27.5C 192.62,27.7709 191.287,27.1042 190.5,25.5 Z"/></g>
<g><path style="opacity:0.712" fill="#6a6a6a" d="M 234.5,29.5 C 234.5,30.1667 234.5,30.8333 234.5,31.5C 232.393,32.4682 230.059,32.8016 227.5,32.5C 226.508,32.6716 225.842,32.3382 225.5,31.5C 226.5,31.5 227.5,31.5 228.5,31.5C 229.167,31.5 229.833,31.5 230.5,31.5C 231.833,30.8333 233.167,30.1667 234.5,29.5 Z"/></g>
<g><path style="opacity:0.961" fill="#ecc062" d="M 60.5,28.5 C 60.5923,30.8477 61.5923,32.5144 63.5,33.5C 63.5,34.1667 63.5,34.8333 63.5,35.5C 60.248,35.2895 57.248,35.9562 54.5,37.5C 54.5,37.1667 54.5,36.8333 54.5,36.5C 56.1548,35.0698 58.1548,34.2365 60.5,34C 59.193,32.0565 59.193,30.2232 60.5,28.5 Z"/></g>
<g><path style="opacity:0.216" fill="#cacecd" d="M 99.5,31.5 C 101.167,32.8333 102.833,32.8333 104.5,31.5C 105.043,31.56 105.376,31.8933 105.5,32.5C 103.167,33.8333 100.833,33.8333 98.5,32.5C 98.6236,31.8933 98.9569,31.56 99.5,31.5 Z"/></g>
<g><path style="opacity:0.129" fill="#d2d2d1" d="M 107.5,30.5 C 108.222,30.9175 108.722,31.5842 109,32.5C 109.383,31.944 109.883,31.6107 110.5,31.5C 110.179,33.0481 109.179,33.7148 107.5,33.5C 107.5,32.5 107.5,31.5 107.5,30.5 Z"/></g>
<g><path style="opacity:0.212" fill="#c7c8c7" d="M 133.5,27.5 C 134.167,27.5 134.5,27.8333 134.5,28.5C 132.25,28.1814 130.25,28.6814 128.5,30C 129.357,30.6891 130.023,31.5224 130.5,32.5C 124.863,33.6632 119.196,33.8299 113.5,33C 112.288,31.8932 112.621,31.3932 114.5,31.5C 117.167,32.8333 119.833,32.8333 122.5,31.5C 123.391,30.8902 124.391,30.5569 125.5,30.5C 125.389,31.1174 125.056,31.6174 124.5,32C 127.887,33.1451 128.887,32.3117 127.5,29.5C 128.99,27.7202 130.99,27.0535 133.5,27.5 Z"/></g>
<g><path style="opacity:0.208" fill="#c0c0bf" d="M 149.5,24.5 C 150.167,24.5 150.833,24.5 151.5,24.5C 152.529,26.5168 153.529,28.5168 154.5,30.5C 152.827,29.657 151.66,28.3237 151,26.5C 149.967,29.2175 150.8,31.0508 153.5,32C 153.167,32.3333 152.833,32.6667 152.5,33C 146.167,33.6667 139.833,33.6667 133.5,33C 132.288,31.8932 132.621,31.3932 134.5,31.5C 136.833,32.8333 139.167,32.8333 141.5,31.5C 142.167,31.5 142.833,31.5 143.5,31.5C 145.628,32.6291 147.961,32.7958 150.5,32C 149.565,29.6194 149.232,27.1194 149.5,24.5 Z"/></g>
<g><path style="opacity:0.214" fill="#cecece" d="M 154.5,30.5 C 156.696,32.5446 159.03,32.8779 161.5,31.5C 162.043,31.56 162.376,31.8933 162.5,32.5C 160.235,33.6474 157.902,33.8141 155.5,33C 154.748,32.3292 154.414,31.4959 154.5,30.5 Z"/></g>
<g><path style="opacity:0.208" fill="#c8c8c8" d="M 165.5,31.5 C 168.167,32.8333 170.833,32.8333 173.5,31.5C 175.379,31.3932 175.712,31.8932 174.5,33C 171.118,33.8236 167.784,33.657 164.5,32.5C 164.624,31.8933 164.957,31.56 165.5,31.5 Z"/></g>
<g><path style="opacity:0.208" fill="#cacaca" d="M 217.5,16.5 C 217.833,16.5 218.167,16.5 218.5,16.5C 218.334,21.1785 218.501,25.8452 219,30.5C 219.692,31.0253 220.192,31.6919 220.5,32.5C 213.5,33.8333 206.5,33.8333 199.5,32.5C 199.624,31.8933 199.957,31.56 200.5,31.5C 200.842,32.3382 201.508,32.6716 202.5,32.5C 204.415,32.7845 206.081,32.4511 207.5,31.5C 207.198,28.9407 207.532,26.6074 208.5,24.5C 207.99,27.3878 208.656,29.7211 210.5,31.5C 210.842,32.3382 211.508,32.6716 212.5,32.5C 214.527,32.6621 216.527,32.4955 218.5,32C 217.529,26.9283 217.195,21.7616 217.5,16.5 Z M 208.5,24.5 C 209.833,24.5 211.167,24.5 212.5,24.5C 212.662,26.5273 212.495,28.5273 212,30.5C 211.617,31.056 211.117,31.3893 210.5,31.5C 208.656,29.7211 207.99,27.3878 208.5,24.5 Z"/></g>
<g><path style="opacity:0.205" fill="#cacaca" d="M 242.5,31.5 C 245.167,32.8333 247.833,32.8333 250.5,31.5C 251.043,31.56 251.376,31.8933 251.5,32.5C 247.683,33.9145 244.016,33.7478 240.5,32C 241.094,31.5357 241.761,31.369 242.5,31.5 Z"/></g>
<g><path style="opacity:0.427" fill="#a5a3a4" d="M 23.5,28.5 C 23.5,30.8333 23.5,33.1667 23.5,35.5C 22.5,35.5 21.5,35.5 20.5,35.5C 20.5,34.8333 20.5,34.1667 20.5,33.5C 23.1667,32.5 23.1667,31.5 20.5,30.5C 20.8212,28.9519 21.8212,28.2852 23.5,28.5 Z"/></g>
<g><path style="opacity:0.416" fill="#a5a4a4" d="M 28.5,33.5 C 27.8166,35.1765 26.4832,35.8432 24.5,35.5C 24.5,33.1667 24.5,30.8333 24.5,28.5C 25.8333,28.5 27.1667,28.5 28.5,28.5C 28.5,30.1667 28.5,31.8333 28.5,33.5 Z"/></g>
<g><path style="opacity:1" fill="#e7191c" d="M 43.5,25.5 C 45.6111,27.9232 48.2777,29.5898 51.5,30.5C 51.0472,31.4584 50.3805,32.2917 49.5,33C 50.7111,34.1131 50.7111,35.2798 49.5,36.5C 47.2338,37.3142 44.9005,37.8142 42.5,38C 41.7476,38.6708 41.4142,39.5041 41.5,40.5C 40.5655,39.4324 40.2322,38.099 40.5,36.5C 42.2798,33.1446 43.2798,29.478 43.5,25.5 Z"/></g>
<g><path style="opacity:1" fill="#f19f34" d="M 57.5,20.5 C 58.1667,20.5 58.8333,20.5 59.5,20.5C 60.2653,23.0961 60.5987,25.7628 60.5,28.5C 59.193,30.2232 59.193,32.0565 60.5,34C 58.1548,34.2365 56.1548,35.0698 54.5,36.5C 54.1281,33.9783 54.9614,31.9783 57,30.5C 57.4983,27.1832 57.665,23.8499 57.5,20.5 Z"/></g>
<g><path style="opacity:1" fill="#070404" d="M 28.5,33.5 C 29.5,33.5 30.5,33.5 31.5,33.5C 31.5,34.8333 31.5,36.1667 31.5,37.5C 28.8333,37.5 26.1667,37.5 23.5,37.5C 20.5,37.5 17.5,37.5 14.5,37.5C 14.3284,36.5084 14.6618,35.8417 15.5,35.5C 16.1667,35.5 16.8333,35.5 17.5,35.5C 18.5,35.5 19.5,35.5 20.5,35.5C 21.5,35.5 22.5,35.5 23.5,35.5C 23.8333,35.5 24.1667,35.5 24.5,35.5C 26.4832,35.8432 27.8166,35.1765 28.5,33.5 Z"/></g>
<g><path style="opacity:0.639" fill="#e5dbad" d="M 63.5,33.5 C 68.5018,33.5218 68.8352,34.8552 64.5,37.5C 63.7025,37.0431 63.3691,36.3764 63.5,35.5C 63.5,34.8333 63.5,34.1667 63.5,33.5 Z"/></g>
<g><path style="opacity:1" fill="#d44948" d="M 37.5,35.5 C 38.391,36.1098 39.391,36.4431 40.5,36.5C 40.2322,38.099 40.5655,39.4324 41.5,40.5C 41.5,40.8333 41.5,41.1667 41.5,41.5C 39.2036,40.267 37.8702,38.267 37.5,35.5 Z"/></g>
<g><path style="opacity:0.545" fill="#716e6f" d="M 23.5,37.5 C 26.1667,37.5 28.8333,37.5 31.5,37.5C 31.5,38.1667 31.5,38.8333 31.5,39.5C 28.3019,40.0356 25.6353,39.369 23.5,37.5 Z"/></g>
<g><path style="opacity:1" fill="#e82f15" d="M 51.5,30.5 C 52.1667,30.5 52.8333,30.5 53.5,30.5C 53.5198,32.143 52.8532,33.4763 51.5,34.5C 52.6119,35.2652 53.2786,36.2652 53.5,37.5C 49.0435,37.9357 45.0435,39.269 41.5,41.5C 41.5,41.1667 41.5,40.8333 41.5,40.5C 41.4142,39.5041 41.7476,38.6708 42.5,38C 44.9005,37.8142 47.2338,37.3142 49.5,36.5C 50.7111,35.2798 50.7111,34.1131 49.5,33C 50.3805,32.2917 51.0472,31.4584 51.5,30.5 Z"/></g>
<g><path style="opacity:0.843" fill="#e6cb90" d="M 53.5,47.5 C 53.5,46.1667 53.5,44.8333 53.5,43.5C 55.1937,41.5624 57.1937,41.2291 59.5,42.5C 57.5572,44.3421 55.5572,46.0087 53.5,47.5 Z"/></g>
<g><path style="opacity:1" fill="#e33925" d="M 53.5,37.5 C 52.5,38.8333 51.5,40.1667 50.5,41.5C 49.962,43.1172 49.6287,44.7839 49.5,46.5C 47.2646,46.2053 45.2646,46.5386 43.5,47.5C 42.6043,48.5063 41.9377,48.5063 41.5,47.5C 41.5,45.5 41.5,43.5 41.5,41.5C 45.0435,39.269 49.0435,37.9357 53.5,37.5 Z"/></g>
<g><path style="opacity:0.078" fill="#e6e8e8" d="M 35.5,43.5 C 36.8333,43.5 37.5,44.1667 37.5,45.5C 36.8333,45.5 36.1667,45.5 35.5,45.5C 35.5,44.8333 35.5,44.1667 35.5,43.5 Z"/></g>
<g><path style="opacity:0.894" fill="#e7974c" d="M 50.5,41.5 C 51.7777,41.7822 52.7777,42.4489 53.5,43.5C 53.5,44.8333 53.5,46.1667 53.5,47.5C 50.1667,47.5 46.8333,47.5 43.5,47.5C 45.2646,46.5386 47.2646,46.2053 49.5,46.5C 49.6287,44.7839 49.962,43.1172 50.5,41.5 Z"/></g>
<g><path style="opacity:1" fill="#070404" d="M 35.5,45.5 C 36.1667,45.5 36.8333,45.5 37.5,45.5C 37.5,46.1667 37.5,46.8333 37.5,47.5C 35.8002,47.6261 34.3002,48.2927 33,49.5C 31.6998,48.2927 30.1998,47.6261 28.5,47.5C 27.8333,47.5 27.1667,47.5 26.5,47.5C 21.8333,47.5 17.1667,47.5 12.5,47.5C 12.5,48.8333 12.5,50.1667 12.5,51.5C 11.7777,50.4489 10.7777,49.7822 9.5,49.5C 8.77765,48.4489 7.77765,47.7822 6.5,47.5C 15.7755,45.5267 25.4422,44.86 35.5,45.5 Z"/></g>
<g><path style="opacity:0.329" fill="#f1c7ca" d="M 102.5,56.5 C 103.643,53.0242 103.81,49.3575 103,45.5C 102.751,46.624 102.251,47.624 101.5,48.5C 100.893,48.3764 100.56,48.0431 100.5,47.5C 101.404,46.791 101.737,45.791 101.5,44.5C 102.5,44.5 103.5,44.5 104.5,44.5C 104.826,48.8839 104.492,53.2172 103.5,57.5C 102.893,57.3764 102.56,57.0431 102.5,56.5 Z"/></g>
<g><path style="opacity:0.694" fill="#d78d8e" d="M 141.5,45.5 C 145.49,44.6155 148.323,45.9489 150,49.5C 151.444,47.8446 153.278,47.178 155.5,47.5C 156.209,48.404 157.209,48.7373 158.5,48.5C 158.664,51.1873 158.497,53.854 158,56.5C 157.809,54.2922 157.309,52.2922 156.5,50.5C 154.166,49.1592 152.499,49.8259 151.5,52.5C 151.672,53.4916 151.338,54.1583 150.5,54.5C 149.71,53.3915 149.21,52.0581 149,50.5C 147.556,52.1554 145.722,52.822 143.5,52.5C 142.71,53.6085 142.21,54.9419 142,56.5C 141.501,52.8484 141.335,49.1817 141.5,45.5 Z M 143.5,47.5 C 144.5,47.5 145.5,47.5 146.5,47.5C 146.5,48.5 146.5,49.5 146.5,50.5C 145.5,50.5 144.5,50.5 143.5,50.5C 143.5,49.5 143.5,48.5 143.5,47.5 Z M 156.5,50.5 C 156.364,56.0779 154.698,56.7446 151.5,52.5C 152.499,49.8259 154.166,49.1592 156.5,50.5 Z"/></g>
<g><path style="opacity:0.525" fill="#858585" d="M 26.5,47.5 C 22.1667,48.8333 17.8333,50.1667 13.5,51.5C 13.1667,51.5 12.8333,51.5 12.5,51.5C 12.5,50.1667 12.5,48.8333 12.5,47.5C 17.1667,47.5 21.8333,47.5 26.5,47.5 Z"/></g>
<g><path style="opacity:0.867" fill="#cf646c" d="M 41.5,47.5 C 41.9377,48.5063 42.6043,48.5063 43.5,47.5C 43.38,48.5862 42.7133,49.2528 41.5,49.5C 38.9172,48.7582 38.9172,48.0915 41.5,47.5 Z"/></g>
<g><path style="opacity:0.914" fill="#d58c89" d="M 102.5,56.5 C 96.3966,58.2336 93.8966,55.9002 95,49.5C 96.4443,47.8446 98.2776,47.178 100.5,47.5C 100.56,48.0431 100.893,48.3764 101.5,48.5C 102.251,47.624 102.751,46.624 103,45.5C 103.81,49.3575 103.643,53.0242 102.5,56.5 Z M 98.5,49.5 C 100.484,49.484 101.484,50.484 101.5,52.5C 99.8643,56.3972 98.1976,56.2306 96.5,52C 97.3805,51.2917 98.0472,50.4584 98.5,49.5 Z"/></g>
<g><path style="opacity:0.157" fill="#fcd4d4" d="M 164.5,47.5 C 163.791,48.404 162.791,48.7373 161.5,48.5C 161.336,51.1873 161.503,53.854 162,56.5C 162.191,54.2922 162.691,52.2922 163.5,50.5C 163.5,52.8333 163.5,55.1667 163.5,57.5C 162.5,57.5 161.5,57.5 160.5,57.5C 160.5,54.1667 160.5,50.8333 160.5,47.5C 161.833,47.5 163.167,47.5 164.5,47.5 Z"/></g>
<g><path style="opacity:0.863" fill="#d48584" d="M 164.5,47.5 C 165.93,47.4208 167.264,47.7542 168.5,48.5C 169.833,51.5 169.833,54.5 168.5,57.5C 167.686,55.2338 167.186,52.9005 167,50.5C 165.855,49.3157 164.688,49.3157 163.5,50.5C 162.691,52.2922 162.191,54.2922 162,56.5C 161.503,53.854 161.336,51.1873 161.5,48.5C 162.791,48.7373 163.791,48.404 164.5,47.5 Z"/></g>
<g><path style="opacity:0.016" fill="#fefffe" d="M 181.5,48.5 C 181.5,51.1667 181.5,53.8333 181.5,56.5C 180.833,55.1667 180.167,53.8333 179.5,52.5C 179.5,52.1667 179.5,51.8333 179.5,51.5C 180.167,50.5 180.833,49.5 181.5,48.5 Z"/></g>
<g><path style="opacity:0.895" fill="#3d3d3d" d="M 6.5,47.5 C 7.77765,47.7822 8.77765,48.4489 9.5,49.5C 8.73465,52.0961 8.40132,54.7628 8.5,57.5C 6.56132,56.9862 5.56132,55.6528 5.5,53.5C 6.15558,51.5466 6.48891,49.5466 6.5,47.5 Z"/></g>
<g><path style="opacity:0.906" fill="#555454" d="M 28.5,47.5 C 30.1998,47.6261 31.6998,48.2927 33,49.5C 34.3002,48.2927 35.8002,47.6261 37.5,47.5C 37.2786,48.7348 36.6119,49.7348 35.5,50.5C 37.0049,51.8415 37.6715,53.5082 37.5,55.5C 36.1667,55.5 35.5,56.1667 35.5,57.5C 35.6716,58.4916 35.3382,59.1583 34.5,59.5C 34.1788,57.9519 33.1788,57.2852 31.5,57.5C 28.3211,55.5039 27.9878,53.1706 30.5,50.5C 29.3881,49.7348 28.7214,48.7348 28.5,47.5 Z"/></g>
<g><path style="opacity:0.914" fill="#cd8687" d="M 109.5,47.5 C 112.758,48.0678 116.091,48.2345 119.5,48C 120.787,51.1247 120.787,54.2913 119.5,57.5C 117.5,46.8333 115.5,46.8333 113.5,57.5C 113.062,54.4435 111.895,51.7769 110,49.5C 109.617,50.056 109.117,50.3893 108.5,50.5C 107.691,52.2922 107.191,54.2922 107,56.5C 106.503,53.854 106.336,51.1873 106.5,48.5C 107.791,48.7373 108.791,48.404 109.5,47.5 Z"/></g>
<g><path style="opacity:0.784" fill="#db9093" d="M 87.5,45.5 C 88.675,45.281 89.675,45.6143 90.5,46.5C 91.6376,49.913 92.9709,53.2464 94.5,56.5C 92.7305,57.6265 91.3972,57.1265 90.5,55C 89.2068,54.51 87.8734,54.3433 86.5,54.5C 86.5,55.5 86.5,56.5 86.5,57.5C 85.325,57.719 84.325,57.3857 83.5,56.5C 84.8405,52.8098 86.1738,49.1431 87.5,45.5 Z M 88.5,49.5 C 89.7759,50.3864 89.7759,51.3864 88.5,52.5C 87.913,51.7666 87.913,50.7666 88.5,49.5 Z"/></g>
<g><path style="opacity:0.443" fill="#e6969a" d="M 181.5,56.5 C 181.5,53.8333 181.5,51.1667 181.5,48.5C 180.024,46.7704 180.358,45.4371 182.5,44.5C 183.833,48.8333 183.833,53.1667 182.5,57.5C 181.893,57.3764 181.56,57.0431 181.5,56.5 Z"/></g>
<g><path style="opacity:0.504" fill="#808080" d="M 9.5,49.5 C 10.7777,49.7822 11.7777,50.4489 12.5,51.5C 13.1128,54.9694 11.7794,56.9694 8.5,57.5C 8.40132,54.7628 8.73465,52.0961 9.5,49.5 Z"/></g>
<g><path style="opacity:0.306" fill="#dba3a5" d="M 126.5,47.5 C 134.025,46.4875 137.025,49.8208 135.5,57.5C 134.5,57.5 133.5,57.5 132.5,57.5C 132.663,55.1432 132.497,52.8098 132,50.5C 131,49.1667 130,49.1667 129,50.5C 128.814,52.9005 128.314,55.2338 127.5,57.5C 126.513,54.2317 126.18,50.8984 126.5,47.5 Z"/></g>
<g><path style="opacity:0.149" fill="#facfce" d="M 109.5,47.5 C 108.791,48.404 107.791,48.7373 106.5,48.5C 106.336,51.1873 106.503,53.854 107,56.5C 107.191,54.2922 107.691,52.2922 108.5,50.5C 108.5,52.8333 108.5,55.1667 108.5,57.5C 107.5,57.5 106.5,57.5 105.5,57.5C 105.5,54.1667 105.5,50.8333 105.5,47.5C 106.833,47.5 108.167,47.5 109.5,47.5 Z"/></g>
<g><path style="opacity:0.82" fill="#c89692" d="M 122.5,44.5 C 123.8,46.223 124.467,48.3897 124.5,51C 124.167,53.1667 123.833,55.3333 123.5,57.5C 122.508,53.2172 122.174,48.8839 122.5,44.5 Z"/></g>
<g><path style="opacity:0.227" fill="#f9d3d0" d="M 141.5,45.5 C 141.335,49.1817 141.501,52.8484 142,56.5C 142.21,54.9419 142.71,53.6085 143.5,52.5C 143.5,54.1667 143.5,55.8333 143.5,57.5C 142.5,57.5 141.5,57.5 140.5,57.5C 140.183,53.2984 140.517,49.2984 141.5,45.5 Z"/></g>
<g><path style="opacity:0.839" fill="#e09191" d="M 179.5,51.5 C 179.5,51.8333 179.5,52.1667 179.5,52.5C 178.758,57.5374 176.091,58.7041 171.5,56C 169.217,49.1177 171.55,46.6177 178.5,48.5C 179.386,49.325 179.719,50.325 179.5,51.5 Z M 173.5,54.5 C 174.601,53.4017 175.934,53.235 177.5,54C 176.318,55.7683 174.985,55.9349 173.5,54.5 Z M 174.5,49.5 C 175.756,49.4614 176.756,49.9614 177.5,51C 176.167,51.6667 174.833,51.6667 173.5,51C 174.056,50.6174 174.389,50.1174 174.5,49.5 Z"/></g>
<g><path style="opacity:0.945" fill="#e6a8a8" d="M 155.5,47.5 C 156.833,47.5 158.167,47.5 159.5,47.5C 159.5,50.8333 159.5,54.1667 159.5,57.5C 156.813,57.6641 154.146,57.4974 151.5,57C 150.748,56.3292 150.414,55.4959 150.5,54.5C 151.338,54.1583 151.672,53.4916 151.5,52.5C 154.698,56.7446 156.364,56.0779 156.5,50.5C 157.309,52.2922 157.809,54.2922 158,56.5C 158.497,53.854 158.664,51.1873 158.5,48.5C 157.209,48.7373 156.209,48.404 155.5,47.5 Z"/></g>
<g><path style="opacity:0.131" fill="#dad9dc" d="M 37.5,55.5 C 37.5,56.8333 36.8333,57.5 35.5,57.5C 35.5,56.1667 36.1667,55.5 37.5,55.5 Z"/></g>
<g><path style="opacity:1" fill="#15100e" d="M 31.5,57.5 C 33.1788,57.2852 34.1788,57.9519 34.5,59.5C 32.8212,59.7148 31.8212,59.0481 31.5,57.5 Z"/></g>
<g><path style="opacity:1" fill="#1b1b1b" d="M 12.5,51.5 C 12.8333,51.5 13.1667,51.5 13.5,51.5C 13.7076,53.9201 13.3742,56.2534 12.5,58.5C 11.8333,58.8333 11.1667,59.1667 10.5,59.5C 9.28665,59.2528 8.61998,58.5862 8.5,57.5C 11.7794,56.9694 13.1128,54.9694 12.5,51.5 Z"/></g>
</svg>
